<?xml version="1.0" encoding="utf-8"?>
<!-- Generator: Adobe Illustrator 16.0.0, SVG Export Plug-In . SVG Version: 6.00 Build 0)  -->
<!DOCTYPE svg PUBLIC "-//W3C//DTD SVG 1.1//EN" "http://www.w3.org/Graphics/SVG/1.1/DTD/svg11.dtd">
<svg version="1.1" id="Layer_1" xmlns="http://www.w3.org/2000/svg" xmlns:xlink="http://www.w3.org/1999/xlink" x="0px" y="0px"
	 width="607.541px" height="353.741px" viewBox="0 0 607.541 353.741" enable-background="new 0 0 607.541 353.741"
	 xml:space="preserve">
<g>
	<g>
		<path fill="#0A58BF" d="M0,353.741v-68.304h43.052v10.597H10.786v17.614h26.205v10.358H10.786v19.141h32.267v10.594H0z"/>
		<path fill="#0A58BF" d="M57.135,285.438h10.789v58.329H96.85v9.975H57.135V285.438z"/>
		<path fill="#0A58BF" d="M93.271,285.438h52.219v10.55h-20.67v57.754h-10.785v-57.754H93.271V285.438z"/>
		<path fill="#0A58BF" d="M156.179,353.741v-68.304h43.059v10.597h-32.27v17.614h26.205v10.358h-26.205v19.141h32.27v10.594H156.179
			z"/>
		<path fill="#0A58BF" d="M213.317,353.741v-68.304h24.823c3.914,0,7.483,0.896,10.717,2.694c3.228,1.801,5.773,4.273,7.634,7.426
			c1.864,3.147,2.791,6.663,2.791,10.55c0,3.433-0.824,6.562-2.479,9.375c-1.655,2.82-3.739,5.035-6.253,6.638
			c-2.515,1.605-4.966,2.423-7.353,2.456l-1.384,0.05v0.05c1.4,0.155,2.545,0.474,3.436,0.95c0.896,0.479,1.655,1.165,2.294,2.056
			l19.283,26.06h-8.402c-1.433,0-2.721-0.245-3.866-0.735c-1.146-0.493-2.184-1.377-3.102-2.651l-17.471-23.435h-9.883v26.821
			H213.317z M224.102,316.32h13.556c2.006,0,3.837-0.447,5.492-1.338c1.652-0.887,2.959-2.112,3.913-3.671
			c0.954-1.563,1.434-3.297,1.434-5.204c0-1.973-0.48-3.725-1.434-5.254c-0.953-1.526-2.261-2.711-3.913-3.556
			c-1.655-0.837-3.502-1.264-5.54-1.264h-13.508V316.32z"/>
		<path fill="#0A58BF" d="M333.412,285.438v68.304h-8.21c-0.635,0-1.281-0.216-1.933-0.639c-0.652-0.431-1.248-1.03-1.789-1.791
			l-35.182-51.745h-0.235c0.92,2.261,1.384,4.644,1.384,7.163l-0.049,47.012h-10.739v-68.304h8.4c1.402,0,2.583,0.248,3.557,0.737
			c0.97,0.497,1.883,1.361,2.744,2.605l32.843,48.21h0.188c-1.146-2.516-1.718-5.032-1.718-7.541v-44.012H333.412z"/>
		<path fill="#0A58BF" d="M351.742,285.438h26.589c4.009,0,7.621,0.804,10.835,2.409c3.214,1.609,5.727,3.837,7.542,6.681
			c1.814,2.851,2.721,6.071,2.721,9.67c0,2.258-0.447,4.442-1.337,6.562c-0.89,2.118-2.201,3.859-3.936,5.227
			c-1.734,1.367-3.813,2.1-6.23,2.195v0.191c2.831,0.097,5.363,0.907,7.591,2.434c2.228,1.533,3.962,3.496,5.201,5.896
			c1.241,2.403,1.864,4.923,1.864,7.564c0,3.694-0.924,7.021-2.771,9.978c-1.844,2.96-4.38,5.277-7.61,6.945
			c-3.231,1.672-6.866,2.506-10.908,2.506l-29.549,0.047V285.438z M378.857,314.46c1.811,0,3.466-0.411,4.962-1.219
			c1.496-0.811,2.682-1.923,3.555-3.344c0.874-1.413,1.314-2.979,1.314-4.7c0-1.781-0.44-3.367-1.314-4.747
			c-0.874-1.384-2.115-2.467-3.726-3.248c-1.604-0.777-3.441-1.168-5.51-1.168h-15.608v18.426H378.857z M380.668,343.098
			c2.132,0,4.035-0.403,5.704-1.215c1.672-0.814,2.976-1.946,3.917-3.416c0.937-1.46,1.407-3.115,1.407-4.962
			c0-1.722-0.45-3.294-1.361-4.725c-0.907-1.434-2.138-2.556-3.697-3.37c-1.56-0.811-3.294-1.215-5.204-1.215h-18.902v18.952
			L380.668,343.098z"/>
		<path fill="#0A58BF" d="M414.891,353.741v-68.304h24.822c3.919,0,7.483,0.896,10.716,2.694c3.231,1.801,5.777,4.273,7.64,7.426
			c1.861,3.147,2.791,6.663,2.791,10.55c0,3.433-0.828,6.562-2.479,9.375c-1.655,2.82-3.739,5.035-6.257,6.638
			c-2.513,1.605-4.962,2.423-7.351,2.456l-1.382,0.05v0.05c1.4,0.155,2.542,0.474,3.436,0.95c0.891,0.479,1.655,1.165,2.291,2.056
			l19.283,26.06h-8.402c-1.43,0-2.718-0.245-3.865-0.735c-1.144-0.493-2.18-1.377-3.104-2.651l-17.468-23.435h-9.883v26.821H414.891
			z M425.68,316.32h13.556c2.006,0,3.833-0.447,5.492-1.338c1.652-0.887,2.956-2.112,3.913-3.671c0.953-1.563,1.43-3.297,1.43-5.204
			c0-1.973-0.477-3.725-1.43-5.254c-0.957-1.526-2.261-2.711-3.913-3.556c-1.658-0.837-3.502-1.264-5.538-1.264h-13.51V316.32z"/>
		<path fill="#0A58BF" d="M478.236,353.741v-68.258h10.789v68.258H478.236z"/>
		<path fill="#0A58BF" d="M507.305,353.741v-68.304h43.057v10.597H518.09v17.614h26.205v10.358H518.09v19.141h32.271v10.594H507.305
			z"/>
		<path fill="#0A58BF" d="M564.439,285.438h43.102v10.597h-32.406v19.329h27.063v10.408h-27.063v27.97h-10.696V285.438z"/>
	</g>
	<polygon fill="#0A58BF" points="301.654,185.244 324.628,173.25 388.962,139.663 388.962,49.186 303.771,0 218.579,49.186 
		218.579,141.874 273.045,170.311 	"/>
	<polygon fill="#0A58BF" points="398.263,90.814 398.263,134.807 458.619,103.298 	"/>
	<polygon fill="#0A58BF" points="209.632,90.741 145.89,103.927 209.632,137.203 	"/>
	<polygon fill="#063B80" points="469.512,117.298 398.263,154.493 388.962,159.35 324.628,192.938 301.654,204.931 273.045,189.998 
		218.579,161.562 209.632,156.891 138.03,119.509 138.03,257.964 469.512,257.964 	"/>
</g>
</svg>
