<?xml version="1.0" encoding="UTF-8" standalone="no"?>
<!-- Generator: Adobe Illustrator 16.0.0, SVG Export Plug-In . SVG Version: 6.00 Build 0)  -->

<svg
   xmlns:dc="http://purl.org/dc/elements/1.1/"
   xmlns:cc="http://creativecommons.org/ns#"
   xmlns:rdf="http://www.w3.org/1999/02/22-rdf-syntax-ns#"
   xmlns:svg="http://www.w3.org/2000/svg"
   xmlns="http://www.w3.org/2000/svg"
   xmlns:sodipodi="http://sodipodi.sourceforge.net/DTD/sodipodi-0.dtd"
   xmlns:inkscape="http://www.inkscape.org/namespaces/inkscape"
   version="1.1"
   id="Layer_1"
   x="0px"
   y="0px"
   width="1324.502px"
   height="257.962px"
   viewBox="0 0 1324.502 257.962"
   enable-background="new 0 0 1324.502 257.962"
   xml:space="preserve"
   sodipodi:docname="horizontal_white.svg"
   inkscape:version="0.92.4 5da689c313, 2019-01-14"><metadata
   id="metadata41"><rdf:RDF><cc:Work
       rdf:about=""><dc:format>image/svg+xml</dc:format><dc:type
         rdf:resource="http://purl.org/dc/dcmitype/StillImage" /></cc:Work></rdf:RDF></metadata><defs
   id="defs39" /><sodipodi:namedview
   pagecolor="#ffffff"
   bordercolor="#666666"
   borderopacity="1"
   objecttolerance="10"
   gridtolerance="10"
   guidetolerance="10"
   inkscape:pageopacity="0"
   inkscape:pageshadow="2"
   inkscape:window-width="1920"
   inkscape:window-height="1032"
   id="namedview37"
   showgrid="false"
   inkscape:zoom="1.6485787"
   inkscape:cx="427.98935"
   inkscape:cy="99.081176"
   inkscape:window-x="0"
   inkscape:window-y="24"
   inkscape:window-maximized="1"
   inkscape:current-layer="g34" />
<g
   id="g34">
	<g
   id="g24"
   style="fill:#ffffff">
		<path
   fill="#0A58BF"
   d="M375.769,240.964V134.299h67.235v16.546h-50.39v27.509h40.922v16.171h-40.922v29.895h50.39v16.545H375.769    z"
   id="path2"
   style="fill:#ffffff" />
		<path
   fill="#0A58BF"
   d="M464.991,134.299h16.845v91.085h45.172v15.58h-62.017V134.299z"
   id="path4"
   style="fill:#ffffff" />
		<path
   fill="#0A58BF"
   d="M521.419,134.299h81.547v16.476h-32.278v90.189h-16.843v-90.189h-32.425V134.299z"
   id="path6"
   style="fill:#ffffff" />
		<path
   fill="#0A58BF"
   d="M619.659,240.964V134.299h67.238v16.546h-50.391v27.509h40.923v16.171h-40.923v29.895h50.391v16.545    H619.659z"
   id="path8"
   style="fill:#ffffff" />
		<path
   fill="#0A58BF"
   d="M708.884,240.964V134.299h38.76c6.112,0,11.689,1.399,16.736,4.21c5.042,2.809,9.019,6.672,11.924,11.594    c2.908,4.916,4.36,10.408,4.36,16.473c0,5.363-1.291,10.246-3.875,14.646c-2.585,4.399-5.838,7.855-9.766,10.358    c-3.924,2.51-7.753,3.791-11.479,3.84l-2.162,0.076v0.076c2.188,0.244,3.976,0.742,5.366,1.486    c1.394,0.748,2.586,1.816,3.581,3.207l30.111,40.699h-13.118c-2.236,0-4.25-0.387-6.038-1.152    c-1.788-0.768-3.405-2.148-4.843-4.139l-27.281-36.6h-15.434v41.891H708.884z M725.728,182.524h21.17    c3.13,0,5.987-0.698,8.572-2.088c2.584-1.388,4.622-3.301,6.113-5.734c1.49-2.437,2.238-5.147,2.238-8.127    c0-3.078-0.748-5.813-2.238-8.199c-1.491-2.385-3.529-4.238-6.113-5.556c-2.585-1.312-5.467-1.976-8.647-1.976h-21.096V182.524z"
   id="path10"
   style="fill:#ffffff" />
		<path
   fill="#0A58BF"
   d="M896.423,134.299v106.665h-12.819c-0.995,0-2.001-0.338-3.018-1.004c-1.023-0.672-1.953-1.605-2.796-2.793    l-54.938-80.805h-0.371c1.438,3.529,2.162,7.254,2.162,11.184l-0.076,73.418h-16.771V134.299h13.119    c2.188,0,4.036,0.384,5.552,1.155c1.518,0.774,2.944,2.121,4.287,4.064l51.285,75.283h0.298    c-1.791-3.926-2.685-7.855-2.685-11.775v-68.728H896.423z"
   id="path12"
   style="fill:#ffffff" />
		<path
   fill="#0A58BF"
   d="M925.048,134.299h41.52c6.26,0,11.901,1.255,16.919,3.764c5.019,2.513,8.946,5.989,11.778,10.435    c2.831,4.445,4.248,9.48,4.248,15.096c0,3.529-0.695,6.938-2.087,10.248c-1.392,3.305-3.439,6.029-6.149,8.161    c-2.708,2.138-5.952,3.28-9.728,3.429v0.302c4.421,0.146,8.372,1.413,11.853,3.798c3.479,2.389,6.188,5.455,8.124,9.205    c1.938,3.754,2.91,7.691,2.91,11.814c0,5.768-1.443,10.961-4.327,15.584c-2.88,4.617-6.843,8.236-11.888,10.844    c-5.045,2.609-10.723,3.914-17.032,3.914l-46.141,0.072V134.299z M967.388,179.618c2.831,0,5.416-0.635,7.751-1.903    c2.334-1.265,4.185-3.003,5.553-5.218c1.364-2.207,2.049-4.654,2.049-7.342c0-2.781-0.686-5.254-2.049-7.412    c-1.369-2.165-3.307-3.85-5.816-5.072c-2.508-1.215-5.379-1.826-8.607-1.826h-24.375v28.773H967.388z M970.219,224.339    c3.327,0,6.3-0.629,8.908-1.896c2.608-1.271,4.645-3.039,6.111-5.334c1.463-2.281,2.198-4.865,2.198-7.75    c0-2.684-0.705-5.145-2.122-7.375c-1.417-2.24-3.344-3.988-5.777-5.26c-2.435-1.268-5.145-1.9-8.127-1.9h-29.516v29.596    L970.219,224.339z"
   id="path14"
   style="fill:#ffffff" />
		<path
   fill="#0A58BF"
   d="M1023.662,240.964V134.299h38.762c6.114,0,11.688,1.399,16.734,4.21c5.045,2.809,9.02,6.672,11.926,11.594    c2.907,4.916,4.362,10.408,4.362,16.473c0,5.363-1.293,10.246-3.877,14.646c-2.582,4.399-5.838,7.855-9.766,10.358    c-3.924,2.51-7.75,3.791-11.48,3.84l-2.16,0.076v0.076c2.188,0.244,3.976,0.742,5.368,1.486c1.39,0.748,2.582,1.816,3.579,3.207    l30.111,40.699h-13.118c-2.236,0-4.249-0.387-6.038-1.152c-1.789-0.768-3.405-2.148-4.845-4.139l-27.279-36.6h-15.432v41.891    H1023.662z M1040.509,182.524h21.17c3.128,0,5.985-0.698,8.574-2.088c2.582-1.388,4.618-3.301,6.111-5.734    c1.49-2.437,2.235-5.147,2.235-8.127c0-3.078-0.745-5.813-2.235-8.199c-1.493-2.385-3.529-4.238-6.111-5.556    c-2.589-1.312-5.469-1.976-8.65-1.976h-21.094V182.524z"
   id="path16"
   style="fill:#ffffff" />
		<path
   fill="#0A58BF"
   d="M1122.577,240.964V134.372h16.847v106.592H1122.577z"
   id="path18"
   style="fill:#ffffff" />
		<path
   fill="#0A58BF"
   d="M1167.97,240.964V134.299h67.237v16.546h-50.392v27.509h40.921v16.171h-40.921v29.895h50.392v16.545    H1167.97z"
   id="path20"
   style="fill:#ffffff" />
		<path
   fill="#0A58BF"
   d="M1257.194,134.299h67.308v16.546h-50.609v30.188h42.261v16.25h-42.261v43.682h-16.698V134.299z"
   id="path22"
   style="fill:#ffffff" />
	</g>
	<polygon
   fill="#0A58BF"
   points="163.624,185.244 186.598,173.251 250.933,139.663 250.933,49.187 165.741,0 80.549,49.187    80.549,141.874 135.016,170.31  "
   id="polygon26"
   style="fill:#ffffff" />
	<polygon
   fill="#0A58BF"
   points="260.233,90.814 260.233,134.807 320.589,103.298  "
   id="polygon28"
   style="fill:#ffffff" />
	<polygon
   fill="#0A58BF"
   points="71.603,90.741 7.861,103.926 71.603,137.204  "
   id="polygon30"
   style="fill:#ffffff" />
	<polygon
   fill="#063B80"
   points="331.482,117.298 260.233,154.493 250.933,159.351 186.598,192.938 163.624,204.931    135.016,189.997 80.549,161.562 71.603,156.891 0,119.509 0,257.962 331.482,257.962  "
   id="polygon32"
   style="fill:#ffffff" />
</g>
</svg>